<svg width="960" height="960" viewBox="0 0 960 960" fill="none" xmlns="http://www.w3.org/2000/svg">
<g clip-path="url(#clip0_348_1421)">
<path fill-rule="evenodd" clip-rule="evenodd" d="M675.508 511.266L642.523 508.758L639.778 508.554C633.443 508.081 626.699 507.678 621.125 510.74C615.551 513.802 612.207 521.724 616.125 526.724C609.902 526.474 603.69 527.452 597.846 529.604C592.001 531.755 586.638 535.038 582.062 539.263C572.977 547.733 569.501 557.926 569.201 570.355L568.718 570.465C570.017 576.367 571.044 582.37 571.77 588.413C574.509 610.974 573.28 634.129 567.801 655.36C567.286 657.457 566.665 659.527 565.938 661.56L566.391 661.721C577.63 660.482 588.997 662.255 599.326 666.858L599.356 667.603C601.89 667.543 604.422 667.543 606.95 667.603L607.474 667.825C600.763 683.903 595.701 700.62 592.366 717.72C592.034 719.281 591.719 720.862 591.419 722.444C590.553 726.944 589.958 732.129 592.909 735.644C594.863 737.97 597.926 738.977 600.836 739.854C629.43 748.425 659.04 754.619 688.883 753.954C718.726 753.289 748.95 745.392 773.133 727.898C797.316 710.404 814.8 682.656 816.291 652.844C817.882 621.249 801.555 590.571 778.068 569.38C754.812 548.4 725.202 535.71 695.088 527.068C696.78 522.707 694.091 517.41 690.062 514.831C687.681 513.391 685.038 512.44 682.286 512.031C680.041 511.66 677.778 511.405 675.508 511.266ZM752.758 630.156C752.844 629.326 752.241 628.583 751.411 628.497C750.581 628.411 749.838 629.014 749.752 629.844C747.264 653.797 726.053 672.884 702.517 679.681C678.977 686.48 653.686 683.262 629.293 678.433C628.475 678.271 627.68 678.803 627.518 679.622C627.356 680.44 627.888 681.235 628.707 681.397C653.15 686.236 679.065 689.6 703.355 682.585C727.649 675.568 750.102 655.721 752.758 630.156Z" fill="#171717"/>
<path fill-rule="evenodd" clip-rule="evenodd" d="M366.065 683.28C301.847 703.071 267.563 696.443 249.726 680.661C242.377 674.009 237.1 665.38 234.524 655.808C232.231 647.415 231.249 638.718 231.613 630.025H231.704C235.964 625.261 240.577 620.265 246.751 618.593C253.076 616.871 259.865 619.047 265.535 622.34C268.37 623.987 271.032 625.908 273.693 627.829C276.355 629.75 279.016 631.671 281.851 633.318C285.124 635.232 288.811 636.803 292.577 636.45C297.788 635.98 301.857 632.084 305.667 628.438C305.907 628.207 306.147 627.978 306.386 627.75C311.886 622.523 318.186 617.699 325.586 616.057C336.887 613.549 348.298 618.837 358.672 623.983L359.931 623.822C361.133 632.981 362.207 642.147 363.154 651.322C363.91 658.64 364.584 665.966 365.178 673.299C365.433 676.37 365.66 679.452 365.886 682.524L365.904 682.766L366.065 683.28ZM202.218 569.188C61.1632 644.088 209.137 827.315 368.663 758.888C380.598 734.54 383.922 706.864 378.091 680.382L377.791 679.482C382.365 677.938 387.085 676.259 391.952 674.446L391.519 673.288C391.519 673.288 373.039 566.994 363.439 553.488C353.839 539.982 344.239 546.388 344.239 546.388V532.167H287.344C287.32 532.21 287.299 532.251 287.277 532.292C287.253 532.337 287.23 532.382 287.203 532.429C287.208 532.384 287.211 532.341 287.213 532.298C287.216 532.255 287.218 532.212 287.223 532.167H271.723C271.723 532.167 275.223 545.733 271.723 546.388C243.361 551.674 220.387 559.529 202.218 569.188ZM363.955 570.434C363.787 569.617 362.987 569.091 362.17 569.259C361.353 569.428 360.827 570.227 360.996 571.045L379.512 660.765C379.68 661.582 380.48 662.108 381.297 661.939C382.114 661.77 382.64 660.971 382.471 660.154L363.955 570.434Z" fill="white" fill-opacity="0.96"/>
<path fill-rule="evenodd" clip-rule="evenodd" d="M271.723 532.165H287.223C288.978 505.537 287.786 478.798 283.668 452.432C287.229 452.083 290.684 451.025 293.83 449.32C304.903 443.734 314.305 435.323 321.084 424.936C327.858 431.452 336.541 435.628 345.861 436.851L345.539 439.208C347.498 448.815 347.363 458.732 345.143 468.283C342.924 477.833 338.672 486.793 332.677 494.552C330.597 497.207 328.32 499.7 326.043 502.193C323.258 505.243 320.474 508.291 318.053 511.633C313.722 517.586 310.539 524.878 311.486 532.16H344.234V534.66H344.587C366.513 524.961 385.056 506.228 391.179 483.053C397.302 459.878 389.235 432.704 369.444 419.178C366.534 417.195 363.437 415.502 360.198 414.122C348.565 409.086 335.289 407.737 322.489 407.968C311.773 408.16 300.947 409.388 290.905 413.125C280.863 416.862 271.597 423.308 265.826 432.342C264.732 434.048 263.74 435.866 262.747 437.686C261.353 440.24 259.958 442.795 258.282 445.042C256.709 447.279 254.66 449.14 252.282 450.491C248.611 452.481 244.383 452.779 240.175 453.076C238.933 453.164 237.692 453.251 236.469 453.382C212.793 455.92 193.587 476.638 188.269 499.863C182.951 523.088 189.638 547.784 201.745 568.3L202.218 569.186C220.387 559.529 243.361 551.674 271.723 546.386C275.223 545.731 271.723 532.165 271.723 532.165ZM365.349 425.418C364.706 424.886 363.753 424.976 363.221 425.618C362.689 426.261 362.778 427.213 363.421 427.746C368.981 432.351 373.547 438.04 376.839 444.465C380.132 450.891 382.083 457.919 382.573 465.123C383.064 472.326 382.084 479.554 379.692 486.367C377.301 493.179 373.549 499.434 368.664 504.751C368.1 505.365 368.14 506.321 368.754 506.886C369.369 507.45 370.325 507.41 370.889 506.795C376.052 501.177 380.017 494.567 382.544 487.367C385.071 480.168 386.107 472.53 385.588 464.917C385.07 457.305 383.008 449.878 379.529 443.087C376.049 436.297 371.225 430.285 365.349 425.418Z" fill="#171717"/>
<path d="M732.554 340.349C734.669 342.365 736.306 344.829 737.346 347.56C738.387 350.29 738.804 353.219 738.567 356.131C738.245 360.845 736.267 365.599 732.514 368.449C728.761 371.299 723.107 371.803 719.35 368.942L718.917 369.042C717.501 362.36 713.708 356.419 708.241 352.323L709.269 351.95C707.669 346.35 710.991 339.95 716.289 337.518C721.587 335.086 728.224 336.461 732.554 340.349Z" fill="white" fill-opacity="0.96"/>
<path d="M713.056 459.719C713.315 460.377 713.363 461.099 713.195 461.786C713.028 462.472 712.652 463.091 712.119 463.556C710.588 464.656 708.473 463.727 706.841 462.791C708.128 464.974 708.959 467.396 709.283 469.91C709.607 472.423 709.417 474.976 708.725 477.415C708.191 479.288 706.861 481.383 704.925 481.192C703.636 481.071 702.699 479.973 701.913 478.956C699.033 475.27 696.153 471.577 693.272 467.877L692.365 467.746C694.228 455.36 695.288 442.868 695.538 430.346L696.102 430.356C699.292 439.826 704.259 448.6 710.736 456.21C711.725 457.222 712.512 458.413 713.056 459.719Z" fill="#171717"/>
<path d="M701.382 384.8C680.212 375.071 656.14 370.72 633.308 374.88L633.177 374.155C643.017 356.106 663.321 344.282 683.877 344.604C692.508 344.735 701.462 347.172 708.24 352.319C713.706 356.415 717.5 362.356 718.916 369.038C720.816 377.347 719.531 386.583 716.257 394.6L716.157 394.691C715.349 393.777 714.48 392.919 713.557 392.122C709.864 389.119 705.765 386.654 701.382 384.8V384.8Z" fill="#171717"/>
<path d="M696.085 422.484C675.161 409.732 650.051 405.747 626.207 411.395V411.415C626.046 415.705 625.778 419.985 625.401 424.256L624.475 424.206C620.718 423.39 616.538 422.282 614.594 418.959C613.154 416.481 613.366 413.409 613.618 410.549C614.192 404.153 614.769 397.76 615.35 391.372C615.692 387.535 616.156 383.405 618.714 380.515C620.92 378.027 624.283 376.939 627.514 376.134C629.438 375.65 631.362 375.234 633.306 374.885C656.138 370.725 680.206 375.076 701.38 384.805C705.764 386.659 709.864 389.124 713.557 392.127C714.481 392.924 715.349 393.782 716.157 394.696C718.561 397.309 720.254 400.496 721.072 403.952C722.149 408.952 720.981 414.124 719.813 419.089C718.826 423.279 717.839 427.465 716.852 431.649C716.006 435.255 715.039 439.082 712.38 441.66C709.721 444.238 704.745 444.803 702.56 441.801L701.291 442.355C699.233 438.505 697.498 434.491 696.104 430.355L695.54 430.345C695.59 427.988 695.61 425.621 695.6 423.264L696.085 422.484Z" fill="white" fill-opacity="0.96"/>
<path d="M366.065 683.281C301.847 703.072 267.565 696.444 249.726 680.662L249.757 680.632C251.59 675.432 257.572 672.695 263.081 672.756C268.59 672.817 273.808 675.032 278.965 676.976C284.122 678.92 289.641 680.652 295.065 679.665C304.825 677.892 311.16 668.082 320.456 664.628C327.577 661.979 335.574 663.399 342.756 665.857C349.938 668.315 356.816 671.809 364.249 673.37L365.175 673.3C365.437 676.452 365.669 679.615 365.901 682.767L366.065 683.281Z" fill="white" fill-opacity="0.96"/>
<path d="M321.365 385.217C303.256 386.587 285.097 390.676 269.204 399.459C263.493 402.611 258.034 406.418 253.935 411.494C252.094 413.767 250.588 416.293 249.463 418.994L248.456 418.571C242.987 414.854 237.556 410.771 233.993 405.206C230.43 399.641 229.008 392.274 231.969 386.361C234.628 381.054 240.177 377.871 245.596 375.454C265.505 366.612 287.566 363.79 309.058 367.336C321.073 369.35 333.623 374.036 340.411 384.036L340.028 385.849C333.985 384.633 327.56 384.754 321.365 385.217Z" fill="#171717"/>
<path d="M325.174 639.619C317.63 641.452 311.474 646.719 305.151 651.242C298.828 655.765 291.343 659.792 283.668 658.594C273.068 656.932 265.912 645.944 255.377 643.879C251.128 643.173 246.765 643.965 243.036 646.12C239.306 648.275 236.441 651.659 234.931 655.693L234.531 655.814C232.238 647.421 231.256 638.724 231.62 630.031H231.711C235.971 625.267 240.584 620.271 246.758 618.599C253.083 616.877 259.872 619.052 265.542 622.346C271.212 625.64 276.188 630.031 281.858 633.324C285.131 635.238 288.818 636.809 292.584 636.456C298.124 635.956 302.374 631.582 306.393 627.756C311.893 622.529 318.187 617.705 325.593 616.063C336.893 613.555 348.305 618.843 358.679 623.989L359.938 623.828C361.138 632.984 362.212 642.151 363.161 651.328L362.043 651.439C356.494 647.783 350.884 644.107 344.71 641.659C338.536 639.211 331.64 638.048 325.174 639.619Z" fill="#171717"/>
<path d="M225.141 376.154C235.696 384.966 227.641 398.724 218.454 404.616C213.216 407.98 205.975 408.847 200.854 405.301C198.932 403.867 197.393 401.98 196.376 399.809C195.358 397.637 194.894 395.247 195.023 392.853C195.346 388.033 197.341 383.477 200.663 379.971C203.691 376.507 207.751 374.106 212.245 373.122C214.486 372.656 216.801 372.686 219.029 373.209C221.257 373.733 223.343 374.738 225.141 376.154V376.154Z" fill="#171717"/>
<path d="M396.491 744.375C387.59 749.899 378.288 754.75 368.663 758.888C209.137 827.315 61.1632 644.088 202.218 569.188C220.387 559.529 243.361 551.674 271.723 546.388C275.223 545.733 271.723 532.167 271.723 532.167H344.239V546.388C344.239 546.388 353.839 539.982 363.439 553.488C373.039 566.994 391.519 673.288 391.519 673.288" stroke="#171717" stroke-width="3.022" stroke-linecap="round" stroke-linejoin="round"/>
<path d="M235.112 605.386C233.021 613.443 231.847 621.711 231.612 630.032C231.248 638.725 232.23 647.422 234.523 655.815C237.099 665.385 242.376 674.011 249.723 680.662C267.56 696.444 301.844 703.072 366.062 683.281C369.862 682.111 373.77 680.845 377.785 679.481C382.358 677.94 387.078 676.261 391.946 674.445C394.988 673.327 398.08 672.138 401.232 670.91" stroke="#171717" stroke-width="3.022" stroke-linecap="round" stroke-linejoin="round"/>
<path d="M439.426 557.836C439.254 557.398 439.179 556.927 439.205 556.457C439.505 551.357 452.147 547.966 467.436 548.883C482.725 549.8 494.861 554.674 494.559 559.77C494.526 560.266 494.382 560.748 494.136 561.18C491.809 565.471 480.146 568.16 466.328 567.334C452.429 566.5 441.128 562.4 439.426 557.836Z" stroke="#171717" stroke-width="3.022" stroke-linecap="round" stroke-linejoin="round"/>
<path d="M436.718 597.983C437.018 592.897 449.66 589.503 464.939 590.419C480.218 591.335 492.374 596.211 492.072 601.307C492.062 601.448 492.042 601.589 492.022 601.73C491.055 606.585 478.697 609.757 463.841 608.871C448.552 607.954 436.406 603.08 436.718 597.983Z" stroke="#171717" stroke-width="3.022" stroke-linecap="round" stroke-linejoin="round"/>
<path d="M508.741 561.514C508.436 561.129 508.219 560.681 508.106 560.204C506.938 555.239 518.077 548.37 532.993 544.875C547.909 541.38 560.932 542.575 562.093 547.544C562.116 547.626 562.129 547.71 562.133 547.796C562.888 552.751 551.87 559.439 537.215 562.873C523.7 566.036 511.732 565.361 508.741 561.514Z" stroke="#171717" stroke-width="3.022" stroke-linecap="round" stroke-linejoin="round"/>
<path d="M517.6 600.713C516.431 595.747 527.571 588.889 542.487 585.394C557.403 581.899 570.426 583.087 571.587 588.053C571.617 588.172 571.637 588.293 571.648 588.415C572.212 593.36 561.254 599.967 546.71 603.382C531.795 606.877 518.772 605.688 517.6 600.713Z" stroke="#171717" stroke-width="3.022" stroke-linecap="round" stroke-linejoin="round"/>
<path d="M454.797 639.871C458.724 639.871 461.908 636.688 461.908 632.76C461.908 628.833 458.724 625.649 454.797 625.649C450.869 625.649 447.686 628.833 447.686 632.76C447.686 636.688 450.869 639.871 454.797 639.871Z" stroke="#171717" stroke-width="3.022" stroke-linecap="round" stroke-linejoin="round"/>
<path d="M479.674 627.601C479.673 628.513 479.401 629.406 478.893 630.164C478.385 630.923 477.664 631.514 476.82 631.863C475.977 632.212 475.049 632.303 474.153 632.125C473.258 631.946 472.436 631.507 471.79 630.861C471.145 630.215 470.705 629.393 470.526 628.498C470.348 627.602 470.439 626.674 470.788 625.831C471.137 624.987 471.728 624.266 472.487 623.758C473.245 623.25 474.138 622.979 475.05 622.978C475.658 622.977 476.259 623.096 476.821 623.328C477.382 623.56 477.892 623.9 478.321 624.33C478.751 624.759 479.091 625.269 479.323 625.83C479.555 626.392 479.674 626.993 479.674 627.601Z" stroke="#171717" stroke-width="3.022" stroke-linecap="round" stroke-linejoin="round"/>
<path d="M465.694 655.2C465.693 656.137 465.414 657.052 464.893 657.831C464.372 658.61 463.632 659.216 462.766 659.574C461.9 659.932 460.948 660.026 460.029 659.843C459.11 659.66 458.266 659.208 457.604 658.546C456.941 657.884 456.49 657.04 456.307 656.121C456.124 655.202 456.218 654.25 456.576 653.384C456.934 652.518 457.54 651.778 458.319 651.257C459.097 650.736 460.013 650.457 460.95 650.456C462.208 650.457 463.414 650.957 464.304 651.846C465.193 652.736 465.693 653.942 465.694 655.2V655.2Z" stroke="#171717" stroke-width="3.022" stroke-linecap="round" stroke-linejoin="round"/>
<path d="M536.599 625.206C538.685 625.206 540.376 623.515 540.376 621.429C540.376 619.343 538.685 617.652 536.599 617.652C534.513 617.652 532.822 619.343 532.822 621.429C532.822 623.515 534.513 625.206 536.599 625.206Z" stroke="#171717" stroke-width="3.022" stroke-linecap="round" stroke-linejoin="round"/>
<path d="M559.835 626.898C562.388 626.898 564.458 624.829 564.458 622.275C564.458 619.722 562.388 617.652 559.835 617.652C557.282 617.652 555.212 619.722 555.212 622.275C555.212 624.829 557.282 626.898 559.835 626.898Z" stroke="#171717" stroke-width="3.022" stroke-linecap="round" stroke-linejoin="round"/>
<path d="M559.653 651.151C559.654 652.47 559.264 653.759 558.532 654.856C557.801 655.952 556.76 656.807 555.542 657.312C554.324 657.817 552.983 657.949 551.69 657.692C550.397 657.435 549.209 656.8 548.277 655.867C547.345 654.935 546.711 653.746 546.454 652.453C546.198 651.16 546.331 649.819 546.837 648.602C547.342 647.384 548.198 646.344 549.295 645.613C550.392 644.881 551.682 644.492 553 644.494C554.765 644.496 556.457 645.198 557.704 646.446C558.951 647.694 559.652 649.387 559.653 651.151V651.151Z" stroke="#171717" stroke-width="3.022" stroke-linecap="round" stroke-linejoin="round"/>
<path d="M311.536 532.578C311.516 532.437 311.496 532.306 311.486 532.165C310.539 524.883 313.722 517.591 318.053 511.638C322.453 505.565 328.053 500.459 332.677 494.557C338.672 486.798 342.924 477.838 345.144 468.288C347.363 458.737 347.498 448.82 345.539 439.213" stroke="#171717" stroke-width="3.022" stroke-linecap="round" stroke-linejoin="round"/>
<path d="M283.6 451.964C283.62 452.125 283.65 452.276 283.67 452.437C287.787 478.801 288.979 505.539 287.225 532.165C287.215 532.255 287.215 532.336 287.205 532.427C287.256 532.336 287.296 532.255 287.346 532.165C287.709 531.49 288.081 530.815 288.434 530.14" stroke="#171717" stroke-width="3.022" stroke-linecap="round" stroke-linejoin="round"/>
<path d="M569.2 570.346C569.5 557.917 572.977 547.724 582.062 539.254C586.638 535.029 592.001 531.747 597.845 529.595C603.69 527.444 609.901 526.465 616.124 526.715C612.206 521.715 615.55 513.793 621.124 510.731C626.698 507.669 633.442 508.072 639.777 508.545L642.526 508.757L675.511 511.265C677.782 511.404 680.044 511.66 682.289 512.03C685.041 512.439 687.684 513.391 690.065 514.83C694.094 517.409 696.783 522.706 695.091 527.067C694.991 527.309 694.88 527.551 694.758 527.793" stroke="#171717" stroke-width="3.022" stroke-linecap="round" stroke-linejoin="round"/>
<path d="M694.191 526.801C694.491 526.882 694.785 526.973 695.091 527.063C725.205 535.705 754.816 548.395 778.072 569.375C801.559 590.566 817.885 621.244 816.294 652.839C814.803 682.651 797.319 710.399 773.136 727.893C748.953 745.387 718.729 753.284 688.886 753.949C659.043 754.614 629.433 748.42 600.839 739.849C597.929 738.972 594.867 737.965 592.913 735.639C589.962 732.124 590.556 726.939 591.422 722.439C591.722 720.857 592.037 719.276 592.369 717.715C595.705 700.615 600.767 683.898 607.477 667.82C607.789 667.084 608.101 666.359 608.424 665.62" stroke="#171717" stroke-width="3.022" stroke-linecap="round" stroke-linejoin="round"/>
<path d="M608.118 665.412C633.19 675.685 660.542 679.109 687.373 675.333C703.115 673.087 718.973 668.092 730.943 657.607C742.913 647.122 750.19 630.343 746.181 614.953" stroke="#171717" stroke-width="3.022" stroke-linecap="round" stroke-linejoin="round"/>
<path d="M642.413 509.281C642.453 509.109 642.493 508.928 642.523 508.757C644.092 501.546 645.043 494.214 645.364 486.841C640.564 485.592 635.725 484.323 631.354 482.006C626.983 479.689 623.054 476.175 621.191 471.592C618.734 465.529 620.191 458.692 621.453 452.275C623.257 443.01 624.575 433.658 625.401 424.255C625.774 419.988 626.043 415.708 626.207 411.414" stroke="#171717" stroke-width="3.022" stroke-linecap="round" stroke-linejoin="round"/>
<path d="M622.642 412.34C623.82 411.998 625.009 411.686 626.207 411.394C650.051 405.747 675.16 409.732 696.085 422.483C698.381 423.893 700.606 425.407 702.762 427.025" stroke="#171717" stroke-width="3.022" stroke-linecap="round" stroke-linejoin="round"/>
<path d="M695.6 423.269C695.61 425.626 695.59 427.993 695.54 430.35C694.969 457.819 690.551 485.072 682.416 511.316" stroke="#171717" stroke-width="3.022" stroke-linecap="round" stroke-linejoin="round"/>
<path d="M696.104 430.359C699.294 439.829 704.261 448.604 710.739 456.213C711.725 457.223 712.511 458.411 713.056 459.713C713.314 460.372 713.362 461.093 713.195 461.78C713.027 462.467 712.651 463.085 712.119 463.55C710.588 464.65 708.473 463.721 706.841 462.785C708.128 464.969 708.958 467.39 709.282 469.904C709.606 472.418 709.416 474.971 708.724 477.409C708.19 479.282 706.86 481.377 704.924 481.186C703.635 481.065 702.699 479.967 701.913 478.95C699.033 475.264 696.152 471.571 693.271 467.871" stroke="#171717" stroke-width="3.022" stroke-linecap="round" stroke-linejoin="round"/>
<path d="M657.188 478.894C664.179 478.561 670.783 475.588 675.669 470.575C676.768 471.95 677.455 473.608 677.649 475.357C677.843 477.107 677.537 478.875 676.766 480.458C675.995 482.04 674.791 483.371 673.293 484.296C671.796 485.221 670.067 485.702 668.307 485.683" stroke="#171717" stroke-width="3.022" stroke-linecap="round" stroke-linejoin="round"/>
<path d="M657.2 461.975L648.75 462.609C650.996 448.167 653.235 433.731 655.467 419.301C648.377 420.137 641.283 420.979 634.186 421.829" stroke="#171717" stroke-width="3.022" stroke-linecap="round" stroke-linejoin="round"/>
<path d="M643.923 434.993C643.479 434.11 642.801 433.366 641.965 432.84C641.128 432.314 640.163 432.026 639.175 432.009C638.187 431.991 637.213 432.244 636.358 432.739C635.503 433.235 634.799 433.955 634.323 434.821" stroke="#171717" stroke-width="3.022" stroke-linecap="round" stroke-linejoin="round"/>
<path d="M663.593 433.701C663.927 432.645 664.584 431.72 665.471 431.056C666.359 430.393 667.432 430.025 668.54 430.004C669.648 429.983 670.734 430.309 671.646 430.938C672.558 431.567 673.25 432.466 673.625 433.509" stroke="#171717" stroke-width="3.022" stroke-linecap="round" stroke-linejoin="round"/>
<path d="M702.561 441.801C704.746 444.801 709.712 444.239 712.381 441.66C715.05 439.081 716.007 435.26 716.853 431.649C717.84 427.459 718.827 423.272 719.814 419.089C720.982 414.124 722.15 408.947 721.073 403.952C720.255 400.496 718.562 397.309 716.158 394.696C715.35 393.782 714.481 392.924 713.558 392.127C709.865 389.124 705.765 386.659 701.381 384.805C680.211 375.076 656.139 370.725 633.307 374.885C631.363 375.237 629.439 375.65 627.515 376.134C624.282 376.939 620.915 378.027 618.715 380.515C616.157 383.405 615.693 387.535 615.351 391.372C614.767 397.768 614.19 404.16 613.619 410.549C613.367 413.409 613.155 416.481 614.595 418.959C616.539 422.282 620.719 423.39 624.476 424.206" stroke="#171717" stroke-width="3.022" stroke-linecap="round" stroke-linejoin="round"/>
<path d="M633.177 374.159C643.017 356.11 663.321 344.286 683.877 344.608C692.508 344.739 701.462 347.176 708.24 352.323C713.706 356.419 717.5 362.36 718.916 369.042C720.816 377.351 719.531 386.587 716.257 394.604" stroke="#171717" stroke-width="3.022" stroke-linecap="round" stroke-linejoin="round"/>
<path d="M719.35 368.942C723.107 371.803 728.757 371.309 732.514 368.449C736.271 365.589 738.245 360.849 738.567 356.131C738.803 353.218 738.386 350.29 737.346 347.56C736.305 344.829 734.668 342.365 732.554 340.349C728.224 336.461 721.586 335.081 716.289 337.519C710.992 339.957 707.667 346.352 709.269 351.951" stroke="#171717" stroke-width="3.022" stroke-linecap="round" stroke-linejoin="round"/>
<path d="M201.745 568.301C189.638 547.785 182.951 523.089 188.269 499.864C193.587 476.639 212.793 455.921 236.469 453.383C241.837 452.809 247.528 453.07 252.282 450.492C254.66 449.141 256.709 447.28 258.282 445.043C261.153 441.196 263.197 436.443 265.826 432.343C271.597 423.309 280.863 416.863 290.905 413.126C300.947 409.389 311.773 408.161 322.489 407.969C335.289 407.738 348.565 409.087 360.198 414.123C363.437 415.503 366.534 417.196 369.444 419.179C389.235 432.705 397.302 459.879 391.179 483.054C385.056 506.229 366.513 524.962 344.587 534.661" stroke="#171717" stroke-width="3.022" stroke-linecap="round" stroke-linejoin="round"/>
<path d="M277.615 451.358C279.509 452.225 281.592 452.596 283.668 452.436C287.229 452.087 290.684 451.029 293.83 449.324C304.904 443.739 314.306 435.327 321.084 424.94C327.859 431.457 336.542 435.632 345.861 436.855C348.037 437.149 350.233 437.267 352.428 437.207" stroke="#171717" stroke-width="3.022" stroke-linecap="round" stroke-linejoin="round"/>
<path d="M258.086 444.892C252.043 442.435 248.115 436.039 247.652 429.533C247.44 425.929 248.06 422.326 249.464 419C250.588 416.299 252.094 413.773 253.936 411.5C258.036 406.424 263.494 402.617 269.205 399.465C285.098 390.682 303.257 386.593 321.366 385.223C327.561 384.76 333.986 384.639 340.029 385.858C343.356 386.493 346.566 387.634 349.547 389.242C357.987 393.865 363.93 404.299 360.556 413.313" stroke="#171717" stroke-width="3.022" stroke-linecap="round" stroke-linejoin="round"/>
<path d="M248.456 418.576C242.987 414.859 237.556 410.776 233.993 405.211C230.43 399.646 229.008 392.279 231.969 386.366C234.628 381.059 240.177 377.876 245.596 375.459C265.505 366.617 287.566 363.795 309.058 367.341C321.073 369.355 333.623 374.041 340.411 384.041C340.623 384.363 340.834 384.696 341.046 385.028" stroke="#171717" stroke-width="3.022" stroke-linecap="round" stroke-linejoin="round"/>
<path d="M225.141 376.154C223.343 374.739 221.258 373.734 219.031 373.211C216.804 372.687 214.489 372.657 212.249 373.122C207.755 374.106 203.695 376.507 200.667 379.971C197.345 383.477 195.35 388.033 195.027 392.853C194.898 395.248 195.362 397.637 196.38 399.809C197.397 401.981 198.935 403.867 200.858 405.301C205.975 408.847 213.216 407.98 218.458 404.616C227.639 398.724 235.7 384.966 225.141 376.154Z" stroke="#171717" stroke-width="3.022" stroke-linecap="round" stroke-linejoin="round"/>
<path d="M297.939 455.519C299.009 454.081 300.601 453.122 302.372 452.847C304.143 452.572 305.951 453.003 307.406 454.048" stroke="#171717" stroke-width="3.022" stroke-linecap="round" stroke-linejoin="round"/>
<path d="M322.253 451.167C323.756 449.621 325.747 448.642 327.889 448.396C330.031 448.15 332.192 448.652 334.006 449.817" stroke="#171717" stroke-width="3.022" stroke-linecap="round" stroke-linejoin="round"/>
<path d="M318.5 441.226C321.169 439.373 324.247 438.194 327.471 437.79C330.695 437.387 333.969 437.771 337.012 438.91" stroke="#171717" stroke-width="3.022" stroke-linecap="round" stroke-linejoin="round"/>
<path d="M321.387 467.2C322.248 466.928 323.171 466.919 324.037 467.174C324.904 467.428 325.674 467.936 326.251 468.63C326.795 469.353 327.086 470.235 327.077 471.139C327.068 472.043 326.76 472.919 326.201 473.63C325.602 474.307 324.779 474.744 323.882 474.86C322.986 474.977 322.078 474.765 321.326 474.264" stroke="#171717" stroke-width="3.022" stroke-linecap="round" stroke-linejoin="round"/>
<path d="M315.484 490.961C311.87 491.342 308.245 490.338 305.342 488.151C302.438 485.964 300.473 482.757 299.842 479.177C297.062 482.088 294.525 485.392 293.458 489.269C292.391 493.146 293.065 497.709 295.976 500.489C296.459 500.949 297.004 501.339 297.596 501.647C300.567 503.239 304.617 502.937 306.712 500.318" stroke="#171717" stroke-width="3.022" stroke-linecap="round" stroke-linejoin="round"/>
<path d="M396.1 745.07L396.643 744.526C402.97 738.162 407.666 730.364 410.331 721.794C411.575 717.805 412.359 713.685 412.668 709.517C413.324 699.375 411.364 689.235 406.977 680.067C406.977 680.047 406.967 680.037 406.957 680.016C405.422 676.81 403.562 673.769 401.407 670.942" stroke="#171717" stroke-width="3.022" stroke-linecap="round" stroke-linejoin="round"/>
<path d="M508.267 559.085C508.428 559.891 508.58 560.707 508.741 561.513C511.289 574.656 513.857 587.82 516.677 600.913C520.434 618.388 524.644 635.741 529.861 652.833C531.543 658.382 533.416 664.023 537.022 668.555C540.628 673.087 546.369 676.355 552.099 675.464C552.653 675.376 553.202 675.251 553.741 675.091C557.521 673.819 560.743 671.274 562.856 667.891C564.132 665.91 565.167 663.783 565.938 661.556C566.665 659.523 567.286 657.453 567.801 655.356C573.28 634.125 574.509 610.97 571.77 588.409C571.044 582.366 570.017 576.363 568.718 570.461C567.042 562.769 564.862 555.195 562.191 547.79" stroke="#171717" stroke-width="3.022" stroke-linecap="round" stroke-linejoin="round"/>
<path d="M439.607 556.487C439.547 556.94 439.487 557.387 439.426 557.836C437.643 571.121 435.881 584.436 434.612 597.781C433.114 612.281 432.506 626.858 432.789 641.432C432.809 646.31 433.308 651.175 434.279 655.955C434.694 657.838 435.262 659.684 435.979 661.474C437.227 664.635 439.073 667.525 441.417 669.985C443.753 672.493 446.721 674.327 450.009 675.293C454.841 676.503 459.95 675.848 464.32 673.46C467.351 671.901 470.064 669.79 472.32 667.235C477.83 660.991 480.72 652.893 483.158 644.927C487.516 630.844 490.707 616.427 492.699 601.82C494.531 588.386 495.067 574.808 494.299 561.271" stroke="#171717" stroke-width="3.022" stroke-linecap="round" stroke-linejoin="round"/>
<path d="M457.565 686.494C460.647 686.423 463.719 686.272 466.781 686.04C469.893 685.809 473.64 684.983 474.566 682.012C475.211 679.967 474.083 677.701 472.411 676.361C470.739 675.021 466.59 674.418 464.525 673.844" stroke="#171717" stroke-width="3.022" stroke-linecap="round" stroke-linejoin="round"/>
<path d="M457.566 686.493C453.819 686.093 450.042 686.046 446.286 686.352C450.043 686.523 453.81 686.573 457.566 686.493Z" stroke="#171717" stroke-width="3.022" stroke-linecap="round" stroke-linejoin="round"/>
<path d="M448.663 700.351C453.9 699.607 459.137 698.858 464.375 698.105C467.406 697.672 471.183 696.514 471.485 693.462C471.785 690.35 468.132 688.477 465.08 687.762C462.605 687.177 460.096 686.753 457.566 686.493" stroke="#171717" stroke-width="3.022" stroke-linecap="round" stroke-linejoin="round"/>
<path d="M448.663 700.352C444.277 700.725 439.915 701.348 435.6 702.216C439.951 701.591 444.305 700.97 448.663 700.352Z" stroke="#171717" stroke-width="3.022" stroke-linecap="round" stroke-linejoin="round"/>
<path d="M410.7 721.864C414.638 721.582 418.57 721.206 422.494 720.736C434.336 719.314 446.058 717.022 457.563 713.878C457.745 713.837 457.916 713.787 458.097 713.737C460.565 713.062 463.103 712.296 465.047 710.645C466.991 708.994 468.199 706.183 467.247 703.806C465.918 700.482 461.547 699.848 457.971 699.888C454.859 699.918 451.754 700.073 448.655 700.351" stroke="#171717" stroke-width="3.022" stroke-linecap="round" stroke-linejoin="round"/>
<path d="M432.507 656.379C429.926 657.574 427.667 659.368 425.919 661.612C424.171 663.855 422.983 666.484 422.455 669.279C422.155 670.951 422.055 672.764 420.975 674.073C420.875 674.194 420.775 674.305 420.663 674.416C419.739 675.189 418.666 675.764 417.51 676.108C413.985 677.408 410.48 678.716 406.955 680.015C406.884 680.046 406.804 680.066 406.733 680.096L406.975 680.066C407.287 680.026 407.6 679.975 407.902 679.935" stroke="#171717" stroke-width="3.022" stroke-linecap="round" stroke-linejoin="round"/>
<path d="M549.048 708.106C548.171 708.506 547.295 708.932 546.439 709.376C543.156 711.076 539.58 713.737 539.731 717.433C539.842 720.333 542.41 722.67 545.19 723.476C546.601 723.857 548.062 724.014 549.521 723.939C550.961 723.867 552.397 723.719 553.821 723.496C562.059 722.338 570.281 721.076 578.486 719.709C582.758 718.995 587.024 718.256 591.286 717.493" stroke="#171717" stroke-width="3.022" stroke-linecap="round" stroke-linejoin="round"/>
<path d="M549.048 708.107C557.671 706.434 566.176 704.2 574.509 701.42C565.691 702.111 557.068 704.376 549.048 708.107Z" stroke="#171717" stroke-width="3.022" stroke-linecap="round" stroke-linejoin="round"/>
<path d="M541.514 692.557C540.839 692.98 540.175 693.423 539.52 693.886C537.236 695.32 535.351 697.309 534.041 699.667C532.873 702.085 532.873 705.227 534.665 707.231C536.982 709.82 541.065 709.538 544.495 708.943C546.016 708.682 547.537 708.41 549.048 708.107" stroke="#171717" stroke-width="3.022" stroke-linecap="round" stroke-linejoin="round"/>
<path d="M541.514 692.556C542.335 692.44 543.149 692.275 543.951 692.062C553.066 689.716 562.178 687.369 571.286 685.022C560.811 684.286 550.377 686.927 541.514 692.556V692.556Z" stroke="#171717" stroke-width="3.022" stroke-linecap="round" stroke-linejoin="round"/>
<path d="M606.95 667.601C604.422 667.541 601.89 667.541 599.356 667.601C583.928 668.051 568.672 670.979 554.174 676.273C550.105 677.763 546.097 679.435 542.174 681.289C540.139 682.255 538.044 683.333 536.715 685.156C535.386 686.979 535.103 689.756 536.675 691.37C537.893 692.629 539.696 692.79 541.509 692.559" stroke="#171717" stroke-width="3.022" stroke-linecap="round" stroke-linejoin="round"/>
<path d="M599.326 666.854C588.997 662.251 577.63 660.478 566.391 661.717" stroke="#171717" stroke-width="3.022" stroke-linecap="round" stroke-linejoin="round"/>
<path d="M420.956 674.689C426.666 672.402 434.734 670.982 440.867 670.499" stroke="#171717" stroke-width="3.022" stroke-linecap="round" stroke-linejoin="round"/>
<path d="M422.99 720.434C422.829 720.534 422.668 720.634 422.497 720.734C421.099 721.49 419.872 722.526 418.891 723.776C418.345 724.48 418.023 725.333 417.97 726.223C417.916 727.112 418.133 727.997 418.591 728.762C419.791 730.393 422.116 730.534 424.13 730.524C439.016 730.444 453.993 730.01 468.546 726.929C470.36 726.692 472.083 725.995 473.552 724.904C474.922 723.716 475.637 721.55 474.64 720.029C473.895 718.871 472.454 718.418 471.125 718.035C466.633 716.756 462.144 715.481 457.659 714.208" stroke="#171717" stroke-width="3.022" stroke-linecap="round" stroke-linejoin="round"/>
<path d="M549.56 724.836C547.892 725.16 546.319 725.859 544.96 726.88C544.291 727.407 543.815 728.14 543.605 728.965C543.396 729.79 543.465 730.661 543.801 731.443C544.738 733.135 547.044 733.397 548.988 733.356C552.921 733.254 556.839 732.856 560.712 732.168C565.566 731.332 570.35 730.133 575.134 728.945C576.72 728.639 578.242 728.064 579.634 727.245C580.325 726.824 580.896 726.232 581.293 725.527C581.69 724.821 581.899 724.026 581.9 723.216C581.789 721.616 580.187 720.124 578.626 720.516" stroke="#171717" stroke-width="3.022" stroke-linecap="round" stroke-linejoin="round"/>
<path d="M368.422 759.373L368.663 758.889C380.598 734.54 383.922 706.862 378.09 680.38" stroke="#171717" stroke-width="3.022" stroke-linecap="round" stroke-linejoin="round"/>
<path d="M365.9 682.766C365.668 679.614 365.436 676.451 365.174 673.299C364.58 665.966 363.905 658.64 363.15 651.322C362.202 642.148 361.128 632.981 359.927 623.822C358.809 615.251 357.575 606.694 356.227 598.15" stroke="#171717" stroke-width="3.022" stroke-linecap="round" stroke-linejoin="round"/>
<path d="M231.708 630.031C235.968 625.267 240.581 620.271 246.755 618.599C253.08 616.877 259.869 619.052 265.539 622.346C271.209 625.64 276.185 630.031 281.855 633.324C285.128 635.238 288.815 636.809 292.581 636.456C298.121 635.956 302.371 631.582 306.39 627.756C311.89 622.529 318.184 617.705 325.59 616.063C336.89 613.555 348.302 618.843 358.676 623.989" stroke="#171717" stroke-width="3.022" stroke-linecap="round" stroke-linejoin="round"/>
<path d="M234.931 655.694C236.441 651.66 239.306 648.276 243.035 646.121C246.765 643.966 251.128 643.174 255.377 643.88C265.912 645.945 273.077 656.933 283.668 658.595C291.343 659.795 298.826 655.755 305.151 651.243C311.476 646.731 317.63 641.453 325.174 639.62C331.64 638.049 338.519 639.207 344.703 641.654C350.887 644.101 356.487 647.778 362.036 651.434" stroke="#171717" stroke-width="3.022" stroke-linecap="round" stroke-linejoin="round"/>
<path d="M249.757 680.632C251.59 675.432 257.572 672.695 263.081 672.756C268.59 672.817 273.808 675.032 278.965 676.976C284.122 678.92 289.641 680.652 295.065 679.665C304.825 677.892 311.16 668.082 320.456 664.628C327.577 661.979 335.574 663.399 342.756 665.857C349.938 668.315 356.816 671.809 364.249 673.37" stroke="#171717" stroke-width="3.022" stroke-linecap="round" stroke-linejoin="round"/>
<path d="M297.768 501.344C297.983 498.889 298.71 496.505 299.902 494.348C301.093 492.19 302.724 490.305 304.688 488.815" stroke="#171717" stroke-width="3.022" stroke-linecap="round" stroke-linejoin="round"/>
<path d="M154.41 456.68C160.221 465.864 163.846 476.26 165.004 487.067C166.162 497.873 164.823 508.802 161.09 519.009C158.95 524.715 155.874 530.352 150.855 533.809C145.836 537.266 138.507 537.92 133.849 533.991C129.191 530.062 129.371 521.254 134.877 518.643C139.572 516.417 145.567 519.743 147.391 524.611C149.215 529.479 147.639 535.078 144.682 539.35C141.725 543.622 137.542 546.86 133.541 550.174C124.411 557.736 115.741 566.26 110.42 576.854C105.099 587.448 103.541 600.461 108.685 611.141" stroke="#171717" stroke-width="3.022" stroke-linecap="round" stroke-linejoin="round"/>
<path d="M120.712 427.273L115.873 415.132" stroke="#171717" stroke-width="3.022" stroke-linecap="round" stroke-linejoin="round"/>
<path d="M55.9814 421.654L70.2184 412.438" stroke="#171717" stroke-width="3.022" stroke-linecap="round" stroke-linejoin="round"/>
<path d="M61.7628 370.176L39.7998 359.348" stroke="#171717" stroke-width="3.022" stroke-linecap="round" stroke-linejoin="round"/>
<path d="M89.7838 351.929C89.5722 341.582 87.9654 331.311 85.0068 321.395" stroke="#171717" stroke-width="3.022" stroke-linecap="round" stroke-linejoin="round"/>
<path d="M136.68 347.509L147.033 327.094" stroke="#171717" stroke-width="3.022" stroke-linecap="round" stroke-linejoin="round"/>
<path d="M129.208 384.789L148.966 381.138" stroke="#171717" stroke-width="3.022" stroke-linecap="round" stroke-linejoin="round"/>
<path d="M99.9289 374.1C96.7289 371.476 91.0339 373.358 90.0289 377.373C89.0239 381.388 93.1499 385.736 97.2119 384.937C101.274 384.138 103.447 378.549 100.992 375.215" stroke="#171717" stroke-width="3.022" stroke-linecap="round" stroke-linejoin="round"/>
<path d="M223.556 203.51C215.651 210.766 210.898 220.828 210.314 231.544C210.041 237.044 211.147 243.064 215.267 246.715C217.69 248.706 220.777 249.705 223.907 249.512C227.036 249.318 229.977 247.946 232.135 245.672C234.972 242.453 235.364 236.545 231.603 234.479C230.454 233.941 229.172 233.752 227.917 233.935C226.661 234.118 225.487 234.666 224.539 235.51C222.669 237.243 221.411 239.536 220.954 242.045C219.826 247.135 220.681 252.463 223.345 256.945C226.345 261.933 231.326 265.399 234.826 270.045C238.326 274.691 239.989 281.83 235.957 286.025C234.808 287.102 233.433 287.908 231.931 288.384C230.43 288.86 228.841 288.994 227.281 288.776C224.166 288.315 221.166 287.266 218.442 285.686" stroke="white" stroke-opacity="0.96" stroke-width="3.022" stroke-linecap="round" stroke-linejoin="round"/>
<path d="M481.821 277.511C481.082 276.916 480.14 276.634 479.196 276.725C478.252 276.816 477.38 277.273 476.769 277.998C476.157 278.723 475.853 279.658 475.923 280.605C475.992 281.551 476.429 282.432 477.14 283.06C477.851 283.688 478.779 284.013 479.727 283.965C480.674 283.918 481.565 283.501 482.209 282.805C482.854 282.108 483.2 281.188 483.174 280.239C483.148 279.291 482.752 278.391 482.07 277.731" stroke="#171717" stroke-width="3.022" stroke-linecap="round" stroke-linejoin="round"/>
<path d="M417.4 326.264C416.521 325.571 415.433 325.196 414.313 325.202C413.194 325.208 412.109 325.594 411.238 326.297C410.41 327.05 409.882 328.077 409.752 329.188C409.622 330.299 409.898 331.42 410.53 332.343C411.225 333.219 412.229 333.795 413.336 333.952C414.443 334.109 415.568 333.836 416.479 333.188C416.901 332.831 417.247 332.394 417.496 331.901C417.746 331.408 417.894 330.87 417.932 330.318C417.969 329.767 417.896 329.214 417.716 328.692C417.536 328.169 417.253 327.688 416.884 327.277" stroke="#171717" stroke-width="3.022" stroke-linecap="round" stroke-linejoin="round"/>
<path d="M501.735 378.912C498.924 377.522 495.053 380.02 495.161 383.154C495.269 386.288 499.304 388.513 502.012 386.933C504.72 385.353 504.769 380.745 502.093 379.109" stroke="#171717" stroke-width="3.022" stroke-linecap="round" stroke-linejoin="round"/>
<path d="M572.264 270.608C571.354 270.264 570.346 270.292 569.458 270.687C568.57 271.081 567.872 271.81 567.518 272.715C567.163 273.62 567.179 274.628 567.563 275.521C567.946 276.414 568.666 277.12 569.567 277.486C570.467 277.851 571.476 277.847 572.374 277.475C573.271 277.102 573.986 276.39 574.362 275.494C574.739 274.598 574.747 273.59 574.385 272.687C574.023 271.785 573.32 271.062 572.429 270.675" stroke="#171717" stroke-width="3.022" stroke-linecap="round" stroke-linejoin="round"/>
<path d="M498.063 174.209C497.024 173.77 495.864 173.701 494.78 174.016C493.696 174.33 492.753 175.007 492.109 175.934C491.532 176.902 491.354 178.056 491.614 179.153C491.874 180.249 492.552 181.201 493.502 181.805C493.997 182.057 494.54 182.199 495.094 182.222C495.649 182.244 496.202 182.148 496.715 181.938C497.229 181.729 497.692 181.411 498.072 181.007C498.452 180.602 498.741 180.121 498.918 179.595C499.024 179.055 499.001 178.498 498.851 177.969C498.701 177.439 498.428 176.953 498.055 176.548C497.682 176.144 497.218 175.834 496.702 175.642C496.187 175.45 495.633 175.383 495.086 175.445" stroke="#171717" stroke-width="3.022" stroke-linecap="round" stroke-linejoin="round"/>
<path d="M514.856 529.152L521.414 511.113" stroke="#171717" stroke-width="3.022" stroke-linecap="round" stroke-linejoin="round"/>
<path d="M495.8 518.289L494.492 483.229" stroke="#171717" stroke-width="3.022" stroke-linecap="round" stroke-linejoin="round"/>
<path d="M475.655 515.448L462.384 502.177" stroke="#171717" stroke-width="3.022" stroke-linecap="round" stroke-linejoin="round"/>
<path d="M430.473 379.593L471.058 300.109" stroke="#171717" stroke-width="3.022" stroke-linecap="round" stroke-linejoin="round"/>
<path d="M497.485 268.557C513.988 252.897 529.188 235.919 542.935 217.793" stroke="#171717" stroke-width="3.022" stroke-linecap="round" stroke-linejoin="round"/>
<path d="M473.04 260.352L452.28 215.5" stroke="#171717" stroke-width="3.022" stroke-linecap="round" stroke-linejoin="round"/>
<path d="M379.308 306.093C402.935 297.454 427.079 290.302 451.6 284.678" stroke="#171717" stroke-width="3.022" stroke-linecap="round" stroke-linejoin="round"/>
<path d="M500.929 304.24C519.593 314.222 536.766 326.77 551.948 341.518" stroke="#171717" stroke-width="3.022" stroke-linecap="round" stroke-linejoin="round"/>
<path d="M436.268 315.401L447.162 304.019" stroke="#171717" stroke-width="3.022" stroke-linecap="round" stroke-linejoin="round"/>
<path d="M445.3 262.4C440.8 260.294 436.553 257.686 432.64 254.626" stroke="#171717" stroke-width="3.022" stroke-linecap="round" stroke-linejoin="round"/>
<path d="M489.283 249.541L492.162 234.381" stroke="#171717" stroke-width="3.022" stroke-linecap="round" stroke-linejoin="round"/>
<path d="M522.08 284.292L536.78 286.106" stroke="#171717" stroke-width="3.022" stroke-linecap="round" stroke-linejoin="round"/>
<path d="M489.038 331.547L491.301 358.895L491.247 358.073" stroke="#171717" stroke-width="3.022" stroke-linecap="round" stroke-linejoin="round"/>
<path d="M300.8 296.518L313.593 279.926" stroke="white" stroke-opacity="0.96" stroke-width="3.022" stroke-linecap="round" stroke-linejoin="round"/>
<path d="M303.125 230.128L292.7 227.284" stroke="white" stroke-opacity="0.96" stroke-width="3.022" stroke-linecap="round" stroke-linejoin="round"/>
<path d="M344.859 209.265C343.582 205.78 343.218 202.026 343.8 198.359" stroke="white" stroke-opacity="0.96" stroke-width="3.022" stroke-linecap="round" stroke-linejoin="round"/>
<path d="M396.78 215.3L407.9 199.814" stroke="white" stroke-opacity="0.96" stroke-width="3.022" stroke-linecap="round" stroke-linejoin="round"/>
<path d="M417.006 272.164L407.431 263.742" stroke="white" stroke-opacity="0.96" stroke-width="3.022" stroke-linecap="round" stroke-linejoin="round"/>
<path d="M353.9 315.44L353.462 297.903" stroke="white" stroke-opacity="0.96" stroke-width="3.022" stroke-linecap="round" stroke-linejoin="round"/>
<path d="M648.086 187.274C643.418 189.336 639.56 192.878 637.107 197.353C634.654 201.828 633.743 206.985 634.516 212.029C635.116 215.402 636.599 218.763 639.316 220.858C642.033 222.953 646.125 223.446 648.872 221.396C651.619 219.346 652.059 214.596 649.312 212.547C646.653 210.563 642.447 212.059 640.903 214.996C639.359 217.933 640.047 221.642 641.796 224.462C643.545 227.282 646.203 229.396 648.814 231.443C652.054 233.983 655.347 236.553 657.802 239.859C660.257 243.165 661.81 247.359 661.077 251.413C660.344 255.467 656.886 259.135 652.769 259.234C648.652 259.333 644.795 254.969 646.105 251.066" stroke="white" stroke-opacity="0.96" stroke-width="3.022" stroke-linecap="round" stroke-linejoin="round"/>
<path d="M748.381 223.391C740.757 228.206 738.036 239.381 742.592 247.163C747.148 254.945 758.226 258.04 766.156 253.747C768.145 252.794 769.748 251.19 770.699 249.201C771.146 248.199 771.262 247.081 771.031 246.01C770.799 244.938 770.231 243.968 769.41 243.241C766.076 240.715 761.339 244.666 760.453 248.754C759.84 252.034 760.389 255.425 762.005 258.345C763.62 261.265 766.202 263.531 769.307 264.754C780.385 268.754 792.966 258.054 803.907 262.399C806.602 263.47 808.882 265.377 810.412 267.84C811.941 270.304 812.64 273.193 812.405 276.083C812.17 278.973 811.013 281.712 809.106 283.896C807.198 286.079 804.64 287.593 801.807 288.215" stroke="#171717" stroke-width="3.022" stroke-linecap="round" stroke-linejoin="round"/>
<path d="M824.332 403.865C823.484 403.377 822.482 403.231 821.53 403.457C820.578 403.683 819.748 404.263 819.21 405.08C818.671 405.897 818.464 406.888 818.632 407.852C818.799 408.816 819.328 409.68 820.111 410.267C820.893 410.854 821.871 411.12 822.843 411.012C823.815 410.903 824.709 410.428 825.343 409.682C825.976 408.937 826.302 407.978 826.252 407.001C826.203 406.023 825.783 405.102 825.077 404.424" stroke="#171717" stroke-width="3.022" stroke-linecap="round" stroke-linejoin="round"/>
<path d="M817.505 382.712L804.146 330.601" stroke="#171717" stroke-width="3.022" stroke-linecap="round" stroke-linejoin="round"/>
<path d="M850.918 392.083L906.153 349.283" stroke="#171717" stroke-width="3.022" stroke-linecap="round" stroke-linejoin="round"/>
<path d="M816.274 443.873L811.225 506.326L811.625 504.537" stroke="#171717" stroke-width="3.022" stroke-linecap="round" stroke-linejoin="round"/>
<path d="M762.279 404.508L793.921 405.798" stroke="#171717" stroke-width="3.022" stroke-linecap="round" stroke-linejoin="round"/>
<path d="M882.817 414.282C890.911 415.615 899.106 416.245 907.308 416.164" stroke="#171717" stroke-width="3.022" stroke-linecap="round" stroke-linejoin="round"/>
<path d="M838.993 366.491L842.584 354.416" stroke="#171717" stroke-width="3.022" stroke-linecap="round" stroke-linejoin="round"/>
<path d="M786.117 375.001C782.09 372.808 778.551 369.818 775.717 366.213" stroke="#171717" stroke-width="3.022" stroke-linecap="round" stroke-linejoin="round"/>
<path d="M766.118 462.081C768.552 458.847 771.453 455.993 774.726 453.611" stroke="#171717" stroke-width="3.022" stroke-linecap="round" stroke-linejoin="round"/>
<path d="M854.107 440.226C862.314 444.579 870.077 449.723 877.284 455.584" stroke="#171717" stroke-width="3.022" stroke-linecap="round" stroke-linejoin="round"/>
<path d="M845.767 482.056L850.234 495.256" stroke="#171717" stroke-width="3.022" stroke-linecap="round" stroke-linejoin="round"/>
<path d="M777.711 488C777.131 486.98 776.172 486.231 775.042 485.914C773.913 485.598 772.704 485.74 771.679 486.31C770.653 486.88 769.895 487.832 769.567 488.958C769.24 490.085 769.371 491.295 769.931 492.326C770.491 493.357 771.436 494.124 772.559 494.462C773.683 494.8 774.894 494.681 775.93 494.131C776.966 493.58 777.743 492.643 778.091 491.523C778.44 490.403 778.332 489.19 777.792 488.149" stroke="white" stroke-opacity="0.96" stroke-width="3.022" stroke-linecap="round" stroke-linejoin="round"/>
<path d="M767.571 339.991C766.626 339.732 765.618 339.839 764.749 340.292C763.88 340.745 763.214 341.51 762.886 342.434C762.557 343.357 762.59 344.371 762.978 345.271C763.366 346.171 764.08 346.891 764.977 347.286C765.873 347.682 766.887 347.724 767.813 347.403C768.739 347.083 769.51 346.423 769.97 345.558C770.431 344.693 770.547 343.686 770.295 342.738C770.044 341.791 769.443 340.974 768.614 340.451" stroke="white" stroke-opacity="0.96" stroke-width="3.022" stroke-linecap="round" stroke-linejoin="round"/>
<path d="M854.899 312.763C853.934 312.246 852.804 312.128 851.753 312.435C850.701 312.741 849.812 313.447 849.275 314.401C848.738 315.356 848.596 316.482 848.879 317.54C849.163 318.598 849.849 319.502 850.792 320.06C851.734 320.618 852.858 320.784 853.921 320.523C854.985 320.263 855.904 319.596 856.482 318.665C857.06 317.735 857.25 316.616 857.012 315.547C856.775 314.478 856.128 313.544 855.21 312.947" stroke="white" stroke-opacity="0.96" stroke-width="3.022" stroke-linecap="round" stroke-linejoin="round"/>
<path d="M917.822 370.323C916.891 369.747 915.771 369.562 914.704 369.807C913.637 370.052 912.71 370.708 912.124 371.633C911.538 372.557 911.341 373.676 911.574 374.745C911.808 375.814 912.454 376.749 913.372 377.345C914.29 377.941 915.406 378.151 916.478 377.929C917.549 377.707 918.491 377.072 919.097 376.16C919.703 375.249 919.925 374.135 919.715 373.061C919.506 371.987 918.881 371.039 917.976 370.423" stroke="white" stroke-opacity="0.96" stroke-width="3.022" stroke-linecap="round" stroke-linejoin="round"/>
<path d="M884.529 486.014C883.489 485.507 882.292 485.425 881.194 485.787C880.095 486.149 879.181 486.925 878.646 487.951C878.111 488.976 877.997 490.17 878.329 491.278C878.661 492.386 879.412 493.321 880.422 493.884C881.433 494.446 882.623 494.592 883.74 494.291C884.857 493.99 885.811 493.264 886.401 492.269C886.991 491.275 887.17 490.089 886.899 488.964C886.628 487.84 885.929 486.865 884.951 486.249" stroke="white" stroke-opacity="0.96" stroke-width="3.022" stroke-linecap="round" stroke-linejoin="round"/>
<path d="M601.721 374.221C598.023 373.832 594.285 374.28 590.784 375.531" stroke="#171717" stroke-width="3.022" stroke-linecap="round" stroke-linejoin="round"/>
<path d="M603.985 333.142L592.193 325.472" stroke="#171717" stroke-width="3.022" stroke-linecap="round" stroke-linejoin="round"/>
<path d="M635.942 307.817L630.749 296.056L631.422 297.085" stroke="#171717" stroke-width="3.022" stroke-linecap="round" stroke-linejoin="round"/>
<path d="M671.833 325.37L680.412 313.555" stroke="#171717" stroke-width="3.022" stroke-linecap="round" stroke-linejoin="round"/>
<path d="M751.287 754.481C763.507 752.004 775.034 746.872 785.051 739.448C795.069 732.023 803.331 722.487 809.255 711.516" stroke="#171717" stroke-width="3.022" stroke-linecap="round" stroke-linejoin="round"/>
<path d="M222.247 785.678C210.214 784.513 198.653 780.408 188.58 773.725C178.507 767.042 170.23 757.986 164.479 747.354" stroke="#171717" stroke-width="3.022" stroke-linecap="round" stroke-linejoin="round"/>
<path d="M710.733 290.084L720.686 303.592" stroke="#171717" stroke-width="3.022" stroke-linecap="round" stroke-linejoin="round"/>
<path d="M710.022 302.882L722.108 290.796" stroke="#171717" stroke-width="3.022" stroke-linecap="round" stroke-linejoin="round"/>
<path d="M868.289 570.411L859.011 587.333" stroke="#171717" stroke-width="3.022" stroke-linecap="round" stroke-linejoin="round"/>
<path d="M854.593 575.862L873.051 582.624" stroke="#171717" stroke-width="3.022" stroke-linecap="round" stroke-linejoin="round"/>
<path d="M425.704 416.219L435.657 429.727" stroke="#171717" stroke-width="3.022" stroke-linecap="round" stroke-linejoin="round"/>
<path d="M424.993 429.016L437.079 416.93" stroke="#171717" stroke-width="3.022" stroke-linecap="round" stroke-linejoin="round"/>
<path d="M247.464 330.875L257.418 344.383" stroke="#171717" stroke-width="3.022" stroke-linecap="round" stroke-linejoin="round"/>
<path d="M246.753 343.673L258.84 331.587" stroke="#171717" stroke-width="3.022" stroke-linecap="round" stroke-linejoin="round"/>
<path d="M164.816 342.962L174.769 356.47" stroke="white" stroke-opacity="0.96" stroke-width="3.022" stroke-linecap="round" stroke-linejoin="round"/>
<path d="M164.105 355.759L176.191 343.673" stroke="white" stroke-opacity="0.96" stroke-width="3.022" stroke-linecap="round" stroke-linejoin="round"/>
<path d="M80.4199 277.574L80.4439 294.353" stroke="white" stroke-opacity="0.96" stroke-width="3.022" stroke-linecap="round" stroke-linejoin="round"/>
<path d="M72.2695 287.467L89.1655 284.883" stroke="white" stroke-opacity="0.96" stroke-width="3.022" stroke-linecap="round" stroke-linejoin="round"/>
<path d="M48.1328 390.803L58.0858 404.311" stroke="white" stroke-opacity="0.96" stroke-width="3.022" stroke-linecap="round" stroke-linejoin="round"/>
<path d="M47.4219 403.6L59.5079 391.514" stroke="white" stroke-opacity="0.96" stroke-width="3.022" stroke-linecap="round" stroke-linejoin="round"/>
<path d="M111.917 443.479L110.136 460.163" stroke="white" stroke-opacity="0.96" stroke-width="3.022" stroke-linecap="round" stroke-linejoin="round"/>
<path d="M102.751 452.439L119.827 451.686" stroke="white" stroke-opacity="0.96" stroke-width="3.022" stroke-linecap="round" stroke-linejoin="round"/>
<path d="M91.4121 534.562L101.365 548.07" stroke="#171717" stroke-width="3.022" stroke-linecap="round" stroke-linejoin="round"/>
<path d="M90.7012 547.358L102.787 535.271" stroke="#171717" stroke-width="3.022" stroke-linecap="round" stroke-linejoin="round"/>
<path d="M545.106 413.994L566.505 454.379" stroke="#171717" stroke-width="3.022" stroke-linecap="round" stroke-linejoin="round"/>
<path d="M536.74 446.657L574.229 420.431" stroke="#171717" stroke-width="3.022" stroke-linecap="round" stroke-linejoin="round"/>
<path d="M551.382 450.679L559.588 421.073" stroke="#171717" stroke-width="3.022" stroke-linecap="round" stroke-linejoin="round"/>
<path d="M537.866 428.637L571.011 438.612" stroke="#171717" stroke-width="3.022" stroke-linecap="round" stroke-linejoin="round"/>
<path d="M535.936 421.234L548.486 420.591L551.382 409.328" stroke="#171717" stroke-width="3.022" stroke-linecap="round" stroke-linejoin="round"/>
<path d="M567.15 414.316L566.989 425.418L579.861 428.475" stroke="#171717" stroke-width="3.022" stroke-linecap="round" stroke-linejoin="round"/>
<path d="M542.372 450.679L544.463 441.025L534.005 439.577" stroke="#171717" stroke-width="3.022" stroke-linecap="round" stroke-linejoin="round"/>
<path d="M559.749 457.115L562.806 447.461L574.229 448.748" stroke="#171717" stroke-width="3.022" stroke-linecap="round" stroke-linejoin="round"/>
<path d="M150.769 243.367L172.169 283.753" stroke="#171717" stroke-width="3.022" stroke-linecap="round" stroke-linejoin="round"/>
<path d="M142.402 276.031L179.891 249.804" stroke="#171717" stroke-width="3.022" stroke-linecap="round" stroke-linejoin="round"/>
<path d="M157.044 280.052L165.25 250.447" stroke="#171717" stroke-width="3.022" stroke-linecap="round" stroke-linejoin="round"/>
<path d="M143.529 258.01L176.674 267.986" stroke="#171717" stroke-width="3.022" stroke-linecap="round" stroke-linejoin="round"/>
<path d="M141.598 250.608L154.148 249.964L157.044 238.701" stroke="#171717" stroke-width="3.022" stroke-linecap="round" stroke-linejoin="round"/>
<path d="M172.811 243.689L172.651 254.791L185.522 257.848" stroke="#171717" stroke-width="3.022" stroke-linecap="round" stroke-linejoin="round"/>
<path d="M148.034 280.052L150.126 270.398L139.667 268.95" stroke="#171717" stroke-width="3.022" stroke-linecap="round" stroke-linejoin="round"/>
<path d="M165.411 286.488L168.468 276.834L179.892 278.121" stroke="#171717" stroke-width="3.022" stroke-linecap="round" stroke-linejoin="round"/>
<path d="M851.411 225.951L850.82 271.651" stroke="#171717" stroke-width="3.022" stroke-linecap="round" stroke-linejoin="round"/>
<path d="M828.405 250.599L873.88 245.565" stroke="#171717" stroke-width="3.022" stroke-linecap="round" stroke-linejoin="round"/>
<path d="M839.324 261.151L860.723 239.108" stroke="#171717" stroke-width="3.022" stroke-linecap="round" stroke-linejoin="round"/>
<path d="M838.036 235.326L862.336 259.976" stroke="#171717" stroke-width="3.022" stroke-linecap="round" stroke-linejoin="round"/>
<path d="M839.891 227.906L851.213 233.36L859.156 224.866" stroke="#171717" stroke-width="3.022" stroke-linecap="round" stroke-linejoin="round"/>
<path d="M870.6 236.806L865.134 246.47L874.963 255.326" stroke="#171717" stroke-width="3.022" stroke-linecap="round" stroke-linejoin="round"/>
<path d="M831.416 256.829L837.882 249.361L829.399 243.075" stroke="#171717" stroke-width="3.022" stroke-linecap="round" stroke-linejoin="round"/>
<path d="M843.579 270.812L850.891 263.807L860.298 270.415" stroke="#171717" stroke-width="3.022" stroke-linecap="round" stroke-linejoin="round"/>
<path d="M412.373 235.45C411.634 234.855 410.692 234.573 409.748 234.664C408.803 234.755 407.932 235.212 407.32 235.937C406.709 236.662 406.405 237.598 406.475 238.544C406.544 239.49 406.981 240.371 407.692 241C408.403 241.628 409.331 241.953 410.278 241.905C411.226 241.857 412.117 241.441 412.761 240.744C413.405 240.048 413.752 239.127 413.725 238.179C413.699 237.231 413.303 236.33 412.622 235.67" stroke="#171717" stroke-width="3.022" stroke-linecap="round" stroke-linejoin="round"/>
<path d="M617.971 633.491C621.612 630.608 625.677 628.306 630.023 626.667" stroke="white" stroke-opacity="0.96" stroke-width="3.022" stroke-linecap="round" stroke-linejoin="round"/>
<path d="M611.669 583.646L604.478 570.181" stroke="white" stroke-opacity="0.96" stroke-width="3.022" stroke-linecap="round" stroke-linejoin="round"/>
<path d="M650.669 560.992C654.419 559.945 657.999 558.365 661.3 556.301" stroke="white" stroke-opacity="0.96" stroke-width="3.022" stroke-linecap="round" stroke-linejoin="round"/>
<path d="M688.312 607.546C684.545 603.434 681.204 598.951 678.339 594.167L679.391 594.827" stroke="white" stroke-opacity="0.96" stroke-width="3.022" stroke-linecap="round" stroke-linejoin="round"/>
<path d="M712.91 573.08L719.344 566.034" stroke="white" stroke-opacity="0.96" stroke-width="3.022" stroke-linecap="round" stroke-linejoin="round"/>
<path d="M767.631 604.377C771.622 602.787 775.794 601.697 780.052 601.13" stroke="white" stroke-opacity="0.96" stroke-width="3.022" stroke-linecap="round" stroke-linejoin="round"/>
<path d="M768.786 683.322L764.091 669.722" stroke="white" stroke-opacity="0.96" stroke-width="3.022" stroke-linecap="round" stroke-linejoin="round"/>
<path d="M727.122 705.109L713.85 707.693" stroke="white" stroke-opacity="0.96" stroke-width="3.022" stroke-linecap="round" stroke-linejoin="round"/>
<path d="M671.058 721.259L669.568 705.777L670.068 706.748C669.842 706.306 669.71 705.822 669.678 705.326C669.647 704.83 669.717 704.333 669.885 703.865" stroke="white" stroke-opacity="0.96" stroke-width="3.022" stroke-linecap="round" stroke-linejoin="round"/>
<path d="M622.963 704.264C627.364 701.69 631.463 698.629 635.181 695.141" stroke="white" stroke-opacity="0.96" stroke-width="3.022" stroke-linecap="round" stroke-linejoin="round"/>
<path d="M636.085 526.119V517.588" stroke="white" stroke-opacity="0.96" stroke-width="3.022" stroke-linecap="round" stroke-linejoin="round"/>
<path d="M660.757 527.189L661.034 518.655" stroke="white" stroke-opacity="0.96" stroke-width="3.022" stroke-linecap="round" stroke-linejoin="round"/>
<path d="M681.585 528.607L681.941 520.432" stroke="white" stroke-opacity="0.96" stroke-width="3.022" stroke-linecap="round" stroke-linejoin="round"/>
<path d="M283.666 547.21L283.5 539.156" stroke="#171717" stroke-width="3.022" stroke-linecap="round" stroke-linejoin="round"/>
<path d="M301.23 547.684L300.756 540.101" stroke="#171717" stroke-width="3.022" stroke-linecap="round" stroke-linejoin="round"/>
<path d="M315.547 547.216L316 540.105" stroke="#171717" stroke-width="3.022" stroke-linecap="round" stroke-linejoin="round"/>
<path d="M331.959 547.206L332.421 539.147" stroke="#171717" stroke-width="3.022" stroke-linecap="round" stroke-linejoin="round"/>
<g opacity="0.1">
<path d="M274.08 539.486C275.186 546.191 259.969 547.157 255.854 547.974C248.23 549.488 240.654 551.374 233.182 553.507C218.342 557.733 203.501 563.25 190.528 571.732C177.518 580.167 166.81 591.705 159.37 605.308C151.929 618.911 147.989 634.151 147.905 649.656C147.614 665.217 150.814 680.646 157.271 694.808C163.824 708.693 173.036 721.159 184.385 731.5C209.503 754.587 242.269 766.37 275.921 769.288C317.961 772.934 359.763 762.081 398.738 747.213C403.206 745.508 406.28 741.244 404.925 736.313C403.75 732.035 398.525 728.413 394.025 730.126C333.65 753.157 256 768.2 201.473 722.948C179.814 704.971 163.673 678.434 163.811 649.656C163.76 635.149 167.677 620.905 175.14 608.465C182.584 596.319 193.845 587.383 206.304 580.765C220.99 572.958 237.066 568.318 253.178 564.478C261.166 562.578 270.959 561.585 277.514 556.262C283.477 551.418 286.272 542.905 282.39 535.986C279.709 531.207 273.284 534.667 274.08 539.486V539.486Z" fill="#171717"/>
</g>
<g opacity="0.1">
<path d="M320.5 427.1C316.857 428.322 314.829 430.975 312.179 433.567C309.274 436.376 306.137 438.935 302.803 441.219C299.547 443.488 296.061 445.408 292.403 446.948C288.273 448.654 283.892 448.625 281.703 453.119C280.237 456.129 280.817 459.95 283.956 461.713C291.868 466.158 303.807 456.579 309.909 451.664C313.481 448.835 316.617 445.496 319.216 441.753C321.756 438.084 324.816 434.753 324.239 429.948C324.026 428.173 322.508 426.426 320.501 427.1H320.5Z" fill="#171717"/>
</g>
<g opacity="0.1">
<path d="M625.079 416.567C623.605 414.305 621.905 412.259 625.49 411.142C629.356 409.942 634.446 410.442 638.455 410.258C647.457 409.686 656.495 410.012 665.433 411.229C673.249 412.329 680.844 414.647 687.943 418.098C691.444 419.825 694.756 421.911 697.827 424.322C699.485 425.486 700.954 426.898 702.184 428.508C702.695 429.098 703.023 429.824 703.126 430.598C702.863 431.681 702.934 431.799 703.34 430.954C702.088 432.562 700.873 434.8 701.761 436.929C702.402 438.463 703.019 439.829 704.583 440.598C707.513 442.041 711.275 441.459 712.983 438.398C719.896 426.009 708.03 416.091 698.249 410.287C686.205 403.139 672.323 399.9 658.463 398.912C650.846 398.437 643.205 398.481 635.594 399.043C629.407 399.443 623.071 400.024 618.11 404.157C616.282 405.631 614.99 407.666 614.433 409.947C613.876 412.228 614.085 414.629 615.028 416.78C616.746 420.726 621.071 423.063 624.652 419.864C625.074 419.437 625.344 418.884 625.421 418.289C625.498 417.694 625.377 417.09 625.077 416.57L625.079 416.567Z" fill="#171717"/>
</g>
<g opacity="0.1">
<path d="M262.352 436.866C261.117 432.99 259.129 428.442 260.118 424.257C262.396 414.616 246.285 414.411 248.49 424.257C249.185 427.362 249.443 430.175 250.876 433.063C252.276 435.872 253.391 438.488 255.614 440.788C258.359 443.628 263.583 440.729 262.352 436.866V436.866Z" fill="#171717"/>
</g>
</g>
<defs>
<clipPath id="clip0_348_1421">
<rect width="884" height="616" fill="white" transform="translate(38 172)"/>
</clipPath>
</defs>
</svg>
